<?xml version="1.0" encoding="utf-8"?>
<!-- Generator: Adobe Illustrator 24.0.0, SVG Export Plug-In . SVG Version: 6.00 Build 0)  -->
<svg version="1.1" id="Layer_1" xmlns="http://www.w3.org/2000/svg" xmlns:xlink="http://www.w3.org/1999/xlink" x="0px" y="0px"
	 viewBox="0 0 1920.1 84.4" style="enable-background:new 0 0 1920.1 84.4;" xml:space="preserve">
<style type="text/css">
	.st0{fill:none;stroke:#99BADD;stroke-width:30;stroke-miterlimit:10;}
	.st1{fill:#6495ED;}
	.st2{fill:#0F52BA;}
	.st3{fill:url(#SVGID_1_);}
</style>
<path class="st0" d="M92.8,134.1"/>
<path class="st0" d="M138.8,789"/>
<path class="st1" d="M1920,50.1l-1894.5-7l-7.2,15.5c0,0,129,21.9,411.8,12.1s237.4-11.3,396.5-9.1s264.5,12.4,264.5,12.4
	s108,13.2,293,4.9s180.7-14.3,255.1-12.8c74.4,1.5,113.7,7.4,195.4,8.1c45.5,0.4,71.3-0.5,85.4-1.2V50.1z"/>
<path class="st2" d="M1896.7,36L0,48.2v18.9c9.7,1.2,168.1,19.7,425.6,7c265.8-13,218.6-14,379.6-13.7s280.6,9.2,280.6,9.2
	s126.6,11.8,297.7,1.4s158-16.3,234-15.6s123.6,6,205.7,5.7c82.1-0.3,95.7-3.7,95.7-3.7L1896.7,36z"/>
<linearGradient id="SVGID_1_" gradientUnits="userSpaceOnUse" x1="959.562" y1="-1400.1354" x2="960.6708" y2="-1525.4362" gradientTransform="matrix(1 0 0 -1 0 -1430)">
	<stop  offset="0" style="stop-color:#2C69D1"/>
	<stop  offset="0.265" style="stop-color:#2B6CD2"/>
	<stop  offset="0.4713" style="stop-color:#2776D7"/>
	<stop  offset="0.6579" style="stop-color:#2086DF"/>
	<stop  offset="0.8316" style="stop-color:#169EEA"/>
	<stop  offset="0.997" style="stop-color:#0ABBF9"/>
	<stop  offset="1" style="stop-color:#0ABCF9"/>
</linearGradient>
<path class="st3" d="M0,50.6c19,2.7,157.3,20.5,415.1,10.3c278.2-11,232.2-12.4,392.3-10.7c160.1,1.6,270.2,11.5,270.2,11.5
	s114,13,295.2,3.9s174.1-15.2,249.2-13.8s117,7,199.1,7.4s99-2.9,99-2.9V0H0"/>
</svg>
