<?xml version="1.0" encoding="utf-8"?>
<!-- Generator: Adobe Illustrator 23.1.0, SVG Export Plug-In . SVG Version: 6.00 Build 0)  -->
<svg version="1.1" id="Layer_1" xmlns="http://www.w3.org/2000/svg" xmlns:xlink="http://www.w3.org/1999/xlink" x="0px" y="0px"
	 viewBox="0 0 1920.1 488.3" style="enable-background:new 0 0 1920.1 488.3;" xml:space="preserve">
<style type="text/css">
	.st0{fill:#6495ED;}
	.st1{fill:#0F52BA;}
	.st2{fill:url(#SVGID_1_);}
	.st3{fill:none;stroke:#99BADD;stroke-width:30;stroke-miterlimit:10;}
</style>
<path class="st0" d="M1920,299.4L25.5,257.6l-7.2,92.9c0,0,129,130.6,411.8,72.2s237.4-67.5,396.5-54.3s264.5,74.2,264.5,74.2
	s108,78.8,293,29.4s180.7-85.3,255.1-76.2c74.4,9.1,113.7,44.2,195.4,48.1c45.5,2.2,71.3-2.7,85.4-7.4V299.4z"/>
<path class="st1" d="M1896.7,214.9L0,288.1v113.3c9.7,7,168.1,117.5,425.6,42.1c265.8-77.9,218.6-83.6,379.6-81.9
	s280.6,54.9,280.6,54.9s126.6,70.5,297.7,8.5s158-97.3,234-93.5c76,3.8,123.6,35.8,205.7,33.9s95.7-21.8,95.7-21.8L1896.7,214.9z"/>
<linearGradient id="SVGID_1_" gradientUnits="userSpaceOnUse" x1="957.6981" y1="-121.3649" x2="963.5555" y2="540.5216">
	<stop  offset="0" style="stop-color:#2C69D1"/>
	<stop  offset="0.265" style="stop-color:#2B6CD2"/>
	<stop  offset="0.4713" style="stop-color:#2776D7"/>
	<stop  offset="0.6579" style="stop-color:#2086DF"/>
	<stop  offset="0.8316" style="stop-color:#169EEA"/>
	<stop  offset="0.997" style="stop-color:#0ABBF9"/>
	<stop  offset="1" style="stop-color:#0ABCF9"/>
</linearGradient>
<path class="st2" d="M0.1,300.1c0,0,138.9,129.5,416.8,64s231.9-73.7,391.8-64c159.9,9.7,269.9,69.3,269.9,69.3
	s113.9,77.5,294.8,23.3s173.9-90.5,248.9-82.9s116.9,42.3,198.9,44.4s98.9-17.2,98.9-17.2V0H1.1L0.1,300.1z"/>
<path class="st3" d="M93.6,480.4"/>
</svg>
