<?xml version="1.0" encoding="utf-8"?>
<!-- Generator: Adobe Illustrator 24.0.1, SVG Export Plug-In . SVG Version: 6.00 Build 0)  -->
<svg version="1.1" id="Layer_1" xmlns="http://www.w3.org/2000/svg" xmlns:xlink="http://www.w3.org/1999/xlink" x="0px" y="0px"
	 viewBox="0 0 576 288" style="enable-background:new 0 0 576 288;" xml:space="preserve">
<style type="text/css">
	.st0{fill:#6495ED;}
	.st1{clip-path:url(#SVGID_2_);}
	.st2{fill:#FFFFFF;}
</style>
<g>
	<rect class="st0" width="576" height="288"/>
	<g>
		<g>
			<defs>
				<rect id="SVGID_1_" width="576" height="288"/>
			</defs>
			<clipPath id="SVGID_2_">
				<use xlink:href="#SVGID_1_"  style="overflow:visible;"/>
			</clipPath>
			<g class="st1">
				<g>
					<path class="st2" d="M100,19.1c-0.9,0-1.8-0.3-2.5-1c-1.4-1.4-1.4-3.6,0-5l90.3-90.3c1.4-1.4,3.6-1.4,4.9,0
						c1.4,1.4,1.4,3.6,0,5L102.5,18C101.8,18.7,100.9,19.1,100,19.1z"/>
				</g>
				<g>
					<path class="st2" d="M-95.1,230.5c-0.1,0-0.3,0-0.3-0.1c-0.2-0.2-0.2-0.5,0-0.7L33.9,100.3c0.2-0.2,0.5-0.2,0.7,0
						s0.2,0.5,0,0.7L-94.7,230.3C-94.8,230.4-95,230.5-95.1,230.5z"/>
				</g>
				<g>
					<path class="st2" d="M523.8,144.4c-0.1,0-0.3-0.1-0.3-0.1c-0.2-0.2-0.2-0.5,0-0.7l134-134c0.2-0.2,0.5-0.2,0.7,0s0.2,0.5,0,0.7
						l-134,134C524,144.4,523.9,144.4,523.8,144.4z"/>
				</g>
				<g>
					<path class="st2" d="M509.5,208.7c-2.6,0-5.1-1-7.1-2.9c-3.9-3.9-3.9-10.2,0-14.1l134-134c3.9-3.9,10.2-3.9,14.1,0
						c3.9,3.9,3.9,10.2,0,14.1l-134,134C514.6,207.7,512.1,208.7,509.5,208.7z"/>
				</g>
				<g>
					<path class="st2" d="M-93.3,406.4c-2.6,0-5.1-1-7.1-2.9c-3.9-3.9-3.9-10.2,0-14.1l134-134c3.9-3.9,10.2-3.9,14.1,0
						c3.9,3.9,3.9,10.2,0,14.1l-134,134C-88.2,405.4-90.8,406.4-93.3,406.4z"/>
				</g>
				<g>
					<path class="st2" d="M507.8,309.8c-0.3,0-0.5-0.1-0.7-0.3c-0.4-0.4-0.4-1,0-1.4l99.1-99.1c0.4-0.4,1-0.4,1.4,0
						c0.4,0.4,0.4,1,0,1.4l-99.1,99.1C508.3,309.7,508,309.8,507.8,309.8z"/>
				</g>
				<g>
					<path class="st2" d="M452.8,310.9c-0.9,0-1.8-0.3-2.5-1c-1.4-1.4-1.4-3.6,0-5l69.7-69.7c1.4-1.4,3.6-1.4,5,0s1.4,3.6,0,4.9
						l-69.7,69.7C454.6,310.5,453.7,310.9,452.8,310.9z"/>
				</g>
				<g>
					<path class="st2" d="M60.9,21.7c-0.1,0-0.3,0-0.4-0.1c-0.2-0.2-0.2-0.5,0-0.7l31.7-31.7c0.2-0.2,0.5-0.2,0.7,0
						c0.2,0.2,0.2,0.5,0,0.7L61.2,21.6C61.1,21.7,61,21.7,60.9,21.7z"/>
				</g>
				<g>
					<path class="st2" d="M-56.8,113.8c-0.1,0-0.3-0.1-0.4-0.2c-0.2-0.2-0.2-0.5,0-0.7L46.2,9.6c0.2-0.2,0.5-0.2,0.7,0
						s0.2,0.5,0,0.7L-56.4,113.6C-56.5,113.7-56.6,113.8-56.8,113.8z"/>
				</g>
			</g>
		</g>
	</g>
</g>
</svg>
